<?xml version="1.0" encoding="UTF-8" standalone="no"?>
<svg
   width="720"
   height="960"
   overflow="hidden"
   version="1.1"
   id="svg193"
   sodipodi:docname="Figure 2.svg"
   inkscape:version="1.2.1 (9c6d41e410, 2022-07-14)"
   inkscape:export-filename="Figure 2.pdf"
   inkscape:export-xdpi="600"
   inkscape:export-ydpi="600"
   xmlns:inkscape="http://www.inkscape.org/namespaces/inkscape"
   xmlns:sodipodi="http://sodipodi.sourceforge.net/DTD/sodipodi-0.dtd"
   xmlns="http://www.w3.org/2000/svg"
   xmlns:svg="http://www.w3.org/2000/svg">
  <sodipodi:namedview
     id="namedview195"
     pagecolor="#ffffff"
     bordercolor="#000000"
     borderopacity="0.25"
     inkscape:showpageshadow="2"
     inkscape:pageopacity="0.0"
     inkscape:pagecheckerboard="0"
     inkscape:deskcolor="#d1d1d1"
     showgrid="false"
     inkscape:zoom="0.84791667"
     inkscape:cx="33.611793"
     inkscape:cy="478.23096"
     inkscape:window-width="1920"
     inkscape:window-height="1001"
     inkscape:window-x="-9"
     inkscape:window-y="-9"
     inkscape:window-maximized="1"
     inkscape:current-layer="g191" />
  <defs
     id="defs5">
    <clipPath
       id="clip0">
      <rect
         x="0"
         y="0"
         width="720"
         height="960"
         id="rect2" />
    </clipPath>
  </defs>
  <g
     clip-path="url(#clip0)"
     id="g191">
    <path
       d="m 59.864869,75.087938 c 0,-8.105379 6.855981,-14.676145 15.313384,-14.676145 h 85.987807 c 8.45723,0 15.31365,6.570766 15.31365,14.676145 V 133.7904 c 0,8.10529 -6.85642,14.6764 -15.31365,14.6764 H 75.178253 c -8.457403,0 -15.313384,-6.57111 -15.313384,-14.6764 z"
       stroke="#000000"
       stroke-width="1.72974"
       stroke-miterlimit="8"
       fill="none"
       fill-rule="evenodd"
       id="path9" />
    <text
       font-family="Calibri,Calibri_MSFontService,sans-serif"
       font-weight="400"
       font-size="13"
       id="text11"
       style="font-style:normal;font-variant:normal;font-weight:normal;font-stretch:normal;font-size:11.2434px;font-family:Calibri, Calibri_MSFontService, sans-serif;-inkscape-font-specification:'Calibri, Calibri_MSFontService, sans-serif, Normal';font-variant-ligatures:normal;font-variant-caps:normal;font-variant-numeric:normal;font-variant-east-asian:normal;stroke-width:0.864869"
       x="61.600746"
       y="94.706184"
       transform="scale(1.0214794,0.9789723)"><tspan
         sodipodi:role="line"
         id="tspan1033"
         x="61.600746"
         y="94.706184"
         style="stroke-width:0.864869">Dataset containing trait,</tspan><tspan
         sodipodi:role="line"
         id="tspan1035"
         x="61.600746"
         y="108.76041"
         style="stroke-width:0.864869">population coordinates</tspan><tspan
         sodipodi:role="line"
         id="tspan1037"
         x="61.600746"
         y="122.81462"
         style="stroke-width:0.864869">and ecoregion data</tspan></text>
    <text
       font-family="Calibri, Calibri_MSFontService, sans-serif"
       font-weight="400"
       font-size="11.2434px"
       transform="scale(1.0214794,0.9789723)"
       id="text23"
       x="73.618271"
       y="137.81787"
       style="stroke-width:0.864869" />
    <path
       d="m 197.68241,122.78437 c 0,-4.52044 3.82355,-8.18489 8.54027,-8.18489 h 98.65085 c 4.71672,0 8.54027,3.66445 8.54027,8.18489 v 32.73783 c 0,4.52045 -3.82355,8.18488 -8.54027,8.18488 h -98.65085 c -4.71672,0 -8.54027,-3.66443 -8.54027,-8.18488 z"
       stroke="#000000"
       stroke-width="1.72974"
       stroke-miterlimit="8"
       fill="none"
       fill-rule="evenodd"
       id="path25" />
    <text
       font-family="Calibri, Calibri_MSFontService, sans-serif"
       font-weight="400"
       font-size="11.2434px"
       transform="scale(1.0214794,0.9789723)"
       id="text27"
       x="209.42363"
       y="138.68274"
       style="stroke-width:0.864869">Raw training data</text>
    <text
       font-family="Calibri, Calibri_MSFontService, sans-serif"
       font-weight="400"
       font-size="11.2434px"
       transform="scale(1.0214794,0.9789723)"
       id="text29"
       x="204.81129"
       y="152.52065"
       style="stroke-width:0.864869">(70% of individuals)</text>
    <path
       d="m 197.68241,55.049667 c 0,-4.520355 3.82355,-8.184798 8.54027,-8.184798 h 98.65085 c 4.71672,0 8.54027,3.664443 8.54027,8.184798 v 32.738004 c 0,4.520355 -3.82355,8.184797 -8.54027,8.184797 h -98.65085 c -4.71672,0 -8.54027,-3.664442 -8.54027,-8.184797 z"
       stroke="#000000"
       stroke-width="1.72974"
       stroke-miterlimit="8"
       fill="none"
       fill-rule="evenodd"
       id="path31" />
    <text
       font-family="Calibri, Calibri_MSFontService, sans-serif"
       font-weight="400"
       font-size="11.2434px"
       transform="scale(1.0214794,0.9789723)"
       id="text33"
       x="211.44136"
       y="69.493225"
       style="stroke-width:0.864869">Raw testing data</text>
    <text
       font-family="Calibri, Calibri_MSFontService, sans-serif"
       font-weight="400"
       font-size="11.2434px"
       transform="scale(1.0214794,0.9789723)"
       id="text35"
       x="204.81129"
       y="83.331123"
       style="stroke-width:0.864869">(30% of individuals)</text>
    <path
       d="m 176.47971,103.59261 h 11.7728 v 35.43537 l -0.88345,-0.84669 h 4.99942 v 1.69337 h -5.88286 v -35.43537 l 0.88344,0.8467 h -10.88935 z m 14.71114,32.04864 7.06757,3.38673 -7.06757,3.38673 z"
       id="path37"
       style="stroke-width:0.864869" />
    <path
       d="m 176.47971,105.67122 h 11.7728 V 71.418754 l -0.88345,0.846682 h 4.9996 v -1.693365 h -5.88304 v 34.252469 l 0.88344,-0.84669 h -10.88935 z m 14.71105,-30.865736 7.06757,-3.38673 -7.06757,-3.386732 z"
       id="path39"
       style="stroke-width:0.864869" />
    <path
       d="m 196.92722,220.40058 c 0,-4.68586 4.61172,-8.48441 10.30073,-8.48441 H 313.4277 c 5.689,0 10.30074,3.79855 10.30074,8.48441 v 33.93582 c 0,4.68585 -4.61174,8.48439 -10.30074,8.48439 H 207.22795 c -5.68901,0 -10.30073,-3.79854 -10.30073,-8.48439 z"
       stroke="#000000"
       stroke-width="1.93412"
       stroke-miterlimit="8"
       fill="none"
       fill-rule="evenodd"
       id="path41" />
    <path
       d="m 383.20602,122.78437 c 0,-4.52044 3.82355,-8.18489 8.54027,-8.18489 h 116.31977 c 4.71672,0 8.54027,3.66445 8.54027,8.18489 v 32.73783 c 0,4.52045 -3.82355,8.18488 -8.54027,8.18488 H 391.74629 c -4.71672,0 -8.54027,-3.66443 -8.54027,-8.18488 z"
       stroke="#000000"
       stroke-width="1.72974"
       stroke-miterlimit="8"
       fill="none"
       fill-rule="evenodd"
       id="path49" />
    <text
       font-family="Calibri, Calibri_MSFontService, sans-serif"
       font-weight="400"
       font-size="11.2434px"
       transform="scale(1.0214794,0.9789723)"
       id="text51"
       x="386.52542"
       y="138.68274"
       style="stroke-width:0.864869">Complete</text>
    <text
       font-family="Calibri, Calibri_MSFontService, sans-serif"
       font-weight="400"
       font-size="11.2434px"
       transform="scale(1.0214794,0.9789723)"
       id="text53"
       x="434.6701"
       y="138.68274"
       style="stroke-width:0.864869">training</text>
    <text
       font-family="Calibri, Calibri_MSFontService, sans-serif"
       font-weight="400"
       font-size="11.2434px"
       transform="scale(1.0214794,0.9789723)"
       id="text55"
       x="473.44476"
       y="138.68274"
       style="stroke-width:0.864869">data</text>
    <text
       font-family="Calibri, Calibri_MSFontService, sans-serif"
       font-weight="400"
       font-size="11.2434px"
       transform="scale(1.0214794,0.9789723)"
       id="text57"
       x="394.7417"
       y="152.52065"
       style="stroke-width:0.864869">(70% of individuals)</text>
    <path
       d="m 384.08946,55.049667 c 0,-4.520355 3.82356,-8.184798 8.54028,-8.184798 H 508.9495 c 4.71672,0 8.54027,3.664443 8.54027,8.184798 v 32.738004 c 0,4.520355 -3.82355,8.184797 -8.54027,8.184797 H 392.62974 c -4.71672,0 -8.54028,-3.664442 -8.54028,-8.184797 z"
       stroke="#000000"
       stroke-width="1.72974"
       stroke-miterlimit="8"
       fill="none"
       fill-rule="evenodd"
       id="path59" />
    <text
       font-family="Calibri, Calibri_MSFontService, sans-serif"
       font-weight="400"
       font-size="11.2434px"
       transform="scale(1.0214794,0.9789723)"
       id="text61"
       x="389.50922"
       y="69.493225"
       style="stroke-width:0.864869">Complete testing</text>
    <text
       font-family="Calibri, Calibri_MSFontService, sans-serif"
       font-weight="400"
       font-size="11.2434px"
       transform="scale(1.0214794,0.9789723)"
       id="text63"
       x="472.39224"
       y="69.493225"
       style="stroke-width:0.864869">data</text>
    <text
       font-family="Calibri, Calibri_MSFontService, sans-serif"
       font-weight="400"
       font-size="11.2434px"
       transform="scale(1.0214794,0.9789723)"
       id="text65"
       x="395.70688"
       y="83.331123"
       style="stroke-width:0.864869">(30% of individuals)</text>
    <path
       d="m 313.4138,138.30661 h 63.81217 v 1.69336 H 313.4138 Z m 62.63454,-2.54005 7.06757,3.38673 -7.06757,3.38672 z"
       id="path67"
       style="stroke-width:0.864869" />
    <path
       d="m 313.4138,70.571986 64.7981,8.5e-5 v 1.693365 l -64.7981,-8.4e-5 z m 63.62046,-2.539964 7.06757,3.386732 -7.06757,3.38673 z"
       id="path69"
       style="stroke-width:0.864869" />
    <text
       font-family="Calibri, Calibri_MSFontService, sans-serif"
       font-weight="400"
       font-size="11.2434px"
       transform="scale(1.0214794,0.9789723)"
       id="text71"
       x="312.07925"
       y="96.304153"
       style="stroke-width:0.864869">Missing data</text>
    <text
       font-family="Calibri, Calibri_MSFontService, sans-serif"
       font-weight="400"
       font-size="11.2434px"
       transform="scale(1.0214794,0.9789723)"
       id="text73"
       x="308.11209"
       y="110.14206"
       style="stroke-width:0.864869">imputed using</text>
    <text
       font-family="Calibri, Calibri_MSFontService, sans-serif"
       font-weight="400"
       font-size="11.2434px"
       transform="scale(1.0214794,0.9789723)"
       id="text75"
       x="319.93225"
       y="123.97997"
       style="stroke-width:0.864869">Rfimpute</text>
    <path
       d="m 450.52281,163.70708 v 25.63756 H 260.40706 l 0.88344,-0.84668 v 19.14688 h -1.76689 v -19.99356 h 190.11576 l -0.88344,0.84668 v -24.79088 z m -186.58197,42.80913 -3.53378,6.77347 -3.53378,-6.77347 z"
       id="path77"
       style="stroke-width:0.864869" />
    <text
       font-family="Calibri, Calibri_MSFontService, sans-serif"
       font-weight="400"
       font-size="11.2434px"
       id="text91"
       x="316.59702"
       y="209.52124"
       transform="scale(1.0214794,0.9789723)"
       style="stroke-width:0.864869">Recursive Feature Elimination</text>
    <text
       font-family="Calibri, Calibri_MSFontService, sans-serif"
       font-weight="400"
       font-size="11.2434px"
       id="text93"
       x="322.26648"
       y="223.35915"
       transform="scale(1.0214794,0.9789723)"
       style="stroke-width:0.864869">applied to identify optimal</text>
    <text
       font-family="Calibri, Calibri_MSFontService, sans-serif"
       font-weight="400"
       font-size="11.2434px"
       id="text95"
       x="348.27625"
       y="238.21706"
       transform="scale(1.0214794,0.9789723)"
       style="stroke-width:0.864869">subset of traits</text>
    <path
       d="m 259.65171,261.92033 -0.11471,158.10586 1.76688,0.0129 0.11472,-158.10577 z m -2.76232,154.32484 3.5174,22.5941 3.55014,-22.54189 z"
       id="path97"
       style="stroke-width:1.57868" />
    <path
       d="m 453.88168,324.85959 c 0,-5.30022 4.4826,-9.59629 10.01298,-9.59629 H 590.5207 c 5.53037,0 10.01297,4.29607 10.01297,9.59629 v 38.38184 c 0,5.30022 -4.4826,9.59629 -10.01297,9.59629 H 463.89466 c -5.53038,0 -10.01298,-4.29607 -10.01298,-9.59629 z"
       stroke="#000000"
       stroke-width="1.72974"
       stroke-miterlimit="8"
       fill="none"
       fill-rule="evenodd"
       id="path99" />
    <text
       font-family="Calibri, Calibri_MSFontService, sans-serif"
       font-weight="400"
       font-size="11.2434px"
       transform="scale(1.0214794,0.9789723)"
       id="text101"
       x="484.9389"
       y="341.06207"
       style="stroke-width:0.864869">Test Optimal:</text>
    <text
       font-family="Calibri, Calibri_MSFontService, sans-serif"
       font-weight="400"
       font-size="11.2434px"
       transform="scale(1.0214794,0.9789723)"
       id="text103"
       x="468.2175"
       y="354.89996"
       style="stroke-width:0.864869">contains the</text>
    <text
       font-family="Calibri, Calibri_MSFontService, sans-serif"
       font-weight="400"
       font-size="11.2434px"
       transform="scale(1.0214794,0.9789723)"
       id="text105"
       x="528.61481"
       y="354.89996"
       style="stroke-width:0.864869">optimal</text>
    <text
       font-family="Calibri, Calibri_MSFontService, sans-serif"
       font-weight="400"
       font-size="11.2434px"
       transform="scale(1.0214794,0.9789723)"
       id="text107"
       x="457.55106"
       y="368.73788"
       style="stroke-width:0.864869">number of relevant traits</text>
    <path
       d="m 517.48977,70.571986 h 11.10226 V 309.97068 h -1.76688 V 71.418669 l 0.88344,0.846683 h -10.21882 z m 13.7526,238.270064 -3.53378,6.77347 -3.53378,-6.77347 z"
       id="path109"
       style="stroke-width:0.864869" />
    <path
       d="m 187.08106,448.47528 c 0,-5.30023 4.4826,-9.5963 10.01298,-9.5963 h 126.62604 c 5.53037,0 10.01297,4.29607 10.01297,9.5963 v 38.38182 c 0,5.30024 -4.4826,9.5963 -10.01297,9.5963 H 197.09404 c -5.53038,0 -10.01298,-4.29606 -10.01298,-9.5963 z"
       stroke="#000000"
       stroke-width="1.72974"
       stroke-miterlimit="8"
       fill="none"
       fill-rule="evenodd"
       id="path111" />
    <text
       font-family="Calibri, Calibri_MSFontService, sans-serif"
       font-weight="400"
       font-size="11.2434px"
       transform="scale(1.0214794,0.9789723)"
       id="text113"
       x="224.42564"
       y="467.33295"
       style="stroke-width:0.864869">Train Boruta:</text>
    <text
       font-family="Calibri, Calibri_MSFontService, sans-serif"
       font-weight="400"
       font-size="11.2434px"
       transform="scale(1.0214794,0.9789723)"
       id="text115"
       x="201.79462"
       y="481.17084"
       style="stroke-width:0.864869">contains only the most</text>
    <text
       font-family="Calibri, Calibri_MSFontService, sans-serif"
       font-weight="400"
       font-size="11.2434px"
       transform="scale(1.0214794,0.9789723)"
       id="text117"
       x="219.16119"
       y="495.00873"
       style="stroke-width:0.864869">divergent traits</text>
    <path
       d="m 453.88168,448.47528 c 0,-5.30023 4.4826,-9.5963 10.01298,-9.5963 H 590.5207 c 5.53037,0 10.01297,4.29607 10.01297,9.5963 v 38.38182 c 0,5.30024 -4.4826,9.5963 -10.01297,9.5963 H 463.89466 c -5.53038,0 -10.01298,-4.29606 -10.01298,-9.5963 z"
       stroke="#000000"
       stroke-width="1.72974"
       stroke-miterlimit="8"
       fill="none"
       fill-rule="evenodd"
       id="path119" />
    <text
       font-family="Calibri, Calibri_MSFontService, sans-serif"
       font-weight="400"
       font-size="11.2434px"
       transform="scale(1.0214794,0.9789723)"
       id="text121"
       x="487.74973"
       y="467.33295"
       style="stroke-width:0.864869">Test Boruta:</text>
    <text
       font-family="Calibri, Calibri_MSFontService, sans-serif"
       font-weight="400"
       font-size="11.2434px"
       transform="scale(1.0214794,0.9789723)"
       id="text123"
       x="463.10095"
       y="481.17084"
       style="stroke-width:0.864869">contains only the most</text>
    <text
       font-family="Calibri, Calibri_MSFontService, sans-serif"
       font-weight="400"
       font-size="11.2434px"
       transform="scale(1.0214794,0.9789723)"
       id="text125"
       x="480.46753"
       y="495.00873"
       style="stroke-width:0.864869">divergent traits</text>
    <path
       d="m 528.09112,372.83772 v 60.89258 h -1.76688 v -60.89258 z m 2.65034,59.76311 -3.53378,6.77346 -3.53378,-6.77346 z"
       id="path129"
       style="stroke-width:0.864869" />
    <text
       font-family="Calibri, Calibri_MSFontService, sans-serif"
       font-weight="400"
       font-size="11.2434px"
       id="text131"
       x="98.175697"
       y="346.21304"
       transform="scale(1.0214794,0.9789723)"
       style="stroke-width:0.864869">Boruta algorithm applied to the</text>
    <text
       font-family="Calibri, Calibri_MSFontService, sans-serif"
       font-weight="400"
       font-size="11.2434px"
       id="text133"
       x="96.013535"
       y="360.05096"
       transform="scale(1.0214794,0.9789723)"
       style="stroke-width:0.864869">Train Optimal dataset to identify</text>
    <text
       font-family="Calibri, Calibri_MSFontService, sans-serif"
       font-weight="400"
       font-size="11.2434px"
       id="text135"
       x="113.96277"
       y="373.88882"
       transform="scale(1.0214794,0.9789723)"
       style="stroke-width:0.864869">the most divergent traits</text>
    <text
       font-family="Calibri, Calibri_MSFontService, sans-serif"
       font-weight="400"
       font-size="11.2434px"
       transform="scale(1.0214794,0.9789723)"
       id="text137"
       x="112.09559"
       y="524.41431"
       style="stroke-width:0.864869">RF classifier trained on</text>
    <text
       font-family="Calibri, Calibri_MSFontService, sans-serif"
       font-weight="400"
       font-size="11.2434px"
       transform="scale(1.0214794,0.9789723)"
       id="text139"
       x="107.8465"
       y="538.2522"
       style="stroke-width:0.864869">the Train Boruta dataset</text>
    <path
       d="m 114.6385,582.10976 c 0,-3.35117 2.83499,-6.06818 6.33166,-6.06818 h 92.46674 c 3.49668,0 6.33165,2.71701 6.33165,6.06818 v 24.27101 c 0,3.35117 -2.83497,6.06818 -6.33165,6.06818 h -92.46674 c -3.49667,0 -6.33166,-2.71701 -6.33166,-6.06818 z"
       stroke="#000000"
       stroke-width="1.72974"
       stroke-miterlimit="8"
       fill="none"
       fill-rule="evenodd"
       id="path141" />
    <text
       font-family="Calibri, Calibri_MSFontService, sans-serif"
       font-weight="400"
       font-size="11.2434px"
       transform="scale(1.0214794,0.9789723)"
       id="text143"
       x="136.10609"
       y="603.98224"
       style="stroke-width:0.864869">RF classifier</text>
    <text
       font-family="Calibri, Calibri_MSFontService, sans-serif"
       font-weight="400"
       font-size="11.2434px"
       transform="scale(1.0214794,0.9789723)"
       id="text145"
       x="148.50313"
       y="617.82013"
       style="stroke-width:0.864869">model</text>
    <path
       d="m 295.74489,582.10976 c 0,-3.35117 2.83498,-6.06818 6.33165,-6.06818 h 92.46674 c 3.49667,0 6.33165,2.71701 6.33165,6.06818 v 24.27101 c 0,3.35117 -2.83498,6.06818 -6.33165,6.06818 h -92.46674 c -3.49667,0 -6.33165,-2.71701 -6.33165,-6.06818 z"
       stroke="#000000"
       stroke-width="1.72974"
       stroke-miterlimit="8"
       fill="none"
       fill-rule="evenodd"
       id="path147" />
    <text
       font-family="Calibri, Calibri_MSFontService, sans-serif"
       font-weight="400"
       font-size="11.2434px"
       transform="scale(1.0214794,0.9789723)"
       id="text149"
       x="307.71167"
       y="603.98224"
       style="stroke-width:0.864869">GBM classifier</text>
    <text
       font-family="Calibri, Calibri_MSFontService, sans-serif"
       font-weight="400"
       font-size="11.2434px"
       transform="scale(1.0214794,0.9789723)"
       id="text151"
       x="326.01834"
       y="617.82013"
       style="stroke-width:0.864869">model</text>
    <text
       font-family="Calibri, Calibri_MSFontService, sans-serif"
       font-weight="400"
       font-size="11.2434px"
       transform="scale(1.0214794,0.9789723)"
       id="text153"
       x="282.18939"
       y="524.41431"
       style="stroke-width:0.864869">GBM classifier trained on</text>
    <text
       font-family="Calibri, Calibri_MSFontService, sans-serif"
       font-weight="400"
       font-size="11.2434px"
       transform="scale(1.0214794,0.9789723)"
       id="text155"
       x="283.8439"
       y="538.2522"
       style="stroke-width:0.864869">the Train Boruta dataset</text>
    <path
       d="m 259.52361,496.4534 v 40.7964 h 88.53532 l -0.88345,-0.84669 v 34.30513 h 1.76698 v -35.15181 h -88.5354 l 0.88344,0.84668 V 496.4534 Z m 85.00153,73.12596 3.53379,6.77347 3.53386,-6.77347 z"
       id="path157"
       style="stroke-width:0.864869" />
    <path
       d="m 261.32231,496.4534 v 40.79656 H 166.7618 l 0.88345,-0.84668 v 34.30504 h -1.76689 V 535.5566 h 94.5605 l -0.88344,0.84668 V 496.4534 Z m -91.02673,73.1263 -3.53378,6.77346 -3.53378,-6.77346 z"
       id="path159"
       style="stroke-width:0.864869" />
    <path
       d="m 528.54698,496.4534 v 188.19557 h -93.51185 v -1.69336 h 92.6284 l -0.88344,0.84668 V 496.4534 Z m -92.33422,190.73562 -7.06756,-3.38673 7.06756,-3.38674 z"
       id="path161"
       style="stroke-width:0.864869" />
    <path
       d="m 267.47463,654.92447 c 0,-8.0274 6.79015,-14.53499 15.16611,-14.53499 h 131.33835 c 8.37594,0 15.16611,6.50759 15.16611,14.53499 v 58.13833 c 0,8.0274 -6.79017,14.53499 -15.16611,14.53499 H 282.64074 c -8.37596,0 -15.16611,-6.50759 -15.16611,-14.53499 z"
       stroke="#000000"
       stroke-width="1.72974"
       stroke-miterlimit="8"
       fill="none"
       fill-rule="evenodd"
       id="path163" />
    <text
       font-family="Calibri, Calibri_MSFontService, sans-serif"
       font-weight="400"
       font-size="11.2434px"
       transform="scale(1.0214794,0.9789723)"
       id="text165"
       x="280.1777"
       y="674.03662"
       style="stroke-width:0.864869">Compare the RF and GBM</text>
    <text
       font-family="Calibri, Calibri_MSFontService, sans-serif"
       font-weight="400"
       font-size="11.2434px"
       transform="scale(1.0214794,0.9789723)"
       id="text167"
       x="293.00632"
       y="687.87451"
       style="stroke-width:0.864869">models using overall</text>
    <text
       font-family="Calibri,Calibri_MSFontService,sans-serif"
       font-weight="400"
       font-size="13"
       transform="scale(1.0214794,0.9789723)"
       id="text169"
       style="font-style:normal;font-variant:normal;font-weight:normal;font-stretch:normal;font-size:11.2434px;font-family:Calibri, Calibri_MSFontService, sans-serif;-inkscape-font-specification:'Calibri, Calibri_MSFontService, sans-serif, Normal';font-variant-ligatures:normal;font-variant-caps:normal;font-variant-numeric:normal;font-variant-east-asian:normal;stroke-width:0.864869"
       x="284.8653"
       y="701.7124"><tspan
         sodipodi:role="line"
         id="tspan1909"
         x="284.8653"
         y="701.7124"
         style="stroke-width:0.864869">accuracy, sensitivity, and</tspan></text>
    <text
       font-family="Calibri,Calibri_MSFontService,sans-serif"
       font-weight="400"
       font-size="13"
       id="text171"
       style="font-style:normal;font-variant:normal;font-weight:normal;font-stretch:normal;font-size:11.2434px;font-family:Calibri, Calibri_MSFontService, sans-serif;-inkscape-font-specification:'Calibri, Calibri_MSFontService, sans-serif, Normal';font-variant-ligatures:normal;font-variant-caps:normal;font-variant-numeric:normal;font-variant-east-asian:normal;stroke-width:0.864869"
       x="272.96854"
       y="715.55035"
       transform="scale(1.0214794,0.9789723)"><tspan
         sodipodi:role="line"
         id="tspan1907"
         x="272.96854"
         y="715.55035"
         style="stroke-width:0.864869">specificity as computed on the</tspan></text>
    <text
       font-family="Calibri, Calibri_MSFontService, sans-serif"
       font-weight="400"
       font-size="11.2434px"
       transform="scale(1.0214794,0.9789723)"
       id="text173"
       x="294.95483"
       y="729.38824"
       style="stroke-width:0.864869">Test Boruta dataset</text>
    <path
       d="m 165.87836,612.44895 v 72.29477 h 95.57381 v -1.69338 H 166.7618 l 0.88345,0.84668 v -71.44807 z m 94.39618,74.83481 7.06756,-3.38674 -7.06756,-3.38672 z"
       id="path175"
       style="stroke-width:0.864869" />
    <path
       d="m 348.75164,612.44895 v 22.19409 h -1.7669 v -22.19409 z m 2.65034,21.06545 -3.5338,6.77347 -3.53378,-6.77347 z"
       id="path177"
       style="stroke-width:0.864869" />
    <text
       font-family="Calibri, Calibri_MSFontService, sans-serif"
       font-weight="400"
       font-size="11.2434px"
       id="text179"
       x="531.2912"
       y="199.32132"
       transform="scale(1.0214794,0.9789723)"
       style="stroke-width:0.864869">Dataset pruned to</text>
    <text
       font-family="Calibri, Calibri_MSFontService, sans-serif"
       font-weight="400"
       font-size="11.2434px"
       id="text181"
       x="522.85608"
       y="213.15921"
       transform="scale(1.0214794,0.9789723)"
       style="stroke-width:0.864869">contain same traits as</text>
    <text
       font-family="Calibri, Calibri_MSFontService, sans-serif"
       font-weight="400"
       font-size="11.2434px"
       id="text183"
       x="523.1441"
       y="226.99712"
       transform="scale(1.0214794,0.9789723)"
       style="stroke-width:0.864869">Train Optimal dataset</text>
    <text
       font-family="Calibri, Calibri_MSFontService, sans-serif"
       font-weight="400"
       font-size="11.2434px"
       transform="scale(1.0214794,0.9789723)"
       id="text185"
       x="407.70694"
       y="403.33264"
       style="stroke-width:0.864869">Dataset pruned to</text>
    <text
       font-family="Calibri, Calibri_MSFontService, sans-serif"
       font-weight="400"
       font-size="11.2434px"
       transform="scale(1.0214794,0.9789723)"
       id="text187"
       x="399.27103"
       y="417.17053"
       style="stroke-width:0.864869">contain same traits as</text>
    <text
       font-family="Calibri, Calibri_MSFontService, sans-serif"
       font-weight="400"
       font-size="11.2434px"
       transform="scale(1.0214794,0.9789723)"
       id="text189"
       x="402.37329"
       y="431.00842"
       style="stroke-width:0.864869">Train Boruta dataset</text>
    <text
       font-family="Calibri, Calibri_MSFontService, sans-serif"
       font-weight="400"
       font-size="11.2434px"
       id="text85-9"
       x="224.71909"
       y="231.75467"
       transform="scale(1.0214794,0.9789723)"
       style="stroke-width:0.864869">Train Optimal:</text>
    <text
       font-family="Calibri, Calibri_MSFontService, sans-serif"
       font-weight="400"
       font-size="11.2434px"
       id="text87-4"
       x="210.01631"
       y="245.59256"
       transform="scale(1.0214794,0.9789723)"
       style="stroke-width:0.864869">contains the optimal</text>
    <text
       font-family="Calibri, Calibri_MSFontService, sans-serif"
       font-weight="400"
       font-size="11.2434px"
       id="text89-7"
       x="199.34987"
       y="259.43045"
       transform="scale(1.0214794,0.9789723)"
       style="stroke-width:0.864869">number of relevant traits</text>
    <path
       d="m 278.75435,762.2589 c 0,-5.57314 3.76706,-10.09166 8.4134,-10.09166 h 122.86823 c 4.64632,0 8.4134,4.51852 8.4134,10.09166 v 40.36377 c 0,5.57313 -3.76708,10.09166 -8.4134,10.09166 H 287.16775 c -4.64634,0 -8.4134,-4.51853 -8.4134,-10.09166 z"
       stroke="#000000"
       stroke-width="2.57134"
       stroke-miterlimit="8"
       fill="none"
       fill-rule="evenodd"
       id="path147-3" />
    <text
       font-family="Calibri, Calibri_MSFontService, sans-serif"
       font-weight="400"
       font-size="13px"
       id="text149-7"
       x="277.56802"
       y="790.58514"
       style="font-style:normal;font-variant:normal;font-weight:normal;font-stretch:normal;font-size:11.3603px;font-family:Calibri, Calibri_MSFontService, sans-serif;-inkscape-font-specification:'Calibri, Calibri_MSFontService, sans-serif, Normal';font-variant-ligatures:normal;font-variant-caps:normal;font-variant-numeric:normal;font-variant-east-asian:normal;stroke-width:0.873863"
       transform="scale(1.0320995,0.96889884)"><tspan
         sodipodi:role="line"
         id="tspan1050"
         x="277.56802"
         y="790.58514"
         style="stroke-width:0.873863">Accumulated Local Effects</tspan><tspan
         sodipodi:role="line"
         id="tspan1052"
         x="277.56802"
         y="804.78552"
         style="stroke-width:0.873863">plots used to visualize the</tspan><tspan
         sodipodi:role="line"
         id="tspan1054"
         x="277.56802"
         y="818.9859"
         style="stroke-width:0.873863">impact of important</tspan><tspan
         sodipodi:role="line"
         id="tspan1056"
         x="277.56802"
         y="833.18628"
         style="stroke-width:0.873863">traits on classification</tspan></text>
    <path
       d="m 350.5272,728.08025 v 19.80587 h -1.76689 v -19.80587 z m 2.65033,18.79871 -3.53378,6.04458 -3.53378,-6.04458 z"
       id="path177-2"
       style="stroke-width:0.81701" />
  </g>
</svg>
